#define 941c6c50814c466e944077026039bfec1BXCQX0exujyY49B_width 32
#define 941c6c50814c466e944077026039bfec1BXCQX0exujyY49B_height 32
static char 941c6c50814c466e944077026039bfec1BXCQX0exujyY49B_bits[] = {
  0x00, 0x00, 0x00, 0x00, 0x00, 0x00, 0x00, 0x00, 0x00, 0x00, 0x00, 0x00, 
  0x00, 0x00, 0x00, 0x00, 0x00, 0x00, 0x00, 0x00, 0x00, 0xC0, 0x03, 0x00, 
  0x00, 0xF0, 0x0F, 0x00, 0x00, 0x78, 0x1E, 0x00, 0x00, 0x38, 0x1C, 0x00, 
  0x00, 0x1C, 0x18, 0x00, 0x00, 0x18, 0x38, 0x00, 0x00, 0x00, 0x18, 0x00, 
  0x00, 0x00, 0x1C, 0x00, 0x00, 0x00, 0x1E, 0x00, 0x00, 0x80, 0x0F, 0x00, 
  0x00, 0x80, 0x03, 0x00, 0x00, 0x80, 0x01, 0x00, 0x00, 0x00, 0x01, 0x00, 
  0x00, 0xC0, 0x03, 0x00, 0x00, 0xC0, 0x03, 0x00, 0x00, 0xF0, 0x0F, 0x00, 
  0x00, 0x10, 0x08, 0x00, 0x00, 0x08, 0x10, 0x00, 0x00, 0x0C, 0x30, 0x00, 
  0x00, 0xBC, 0x25, 0x00, 0x00, 0xF0, 0x3F, 0x00, 0x00, 0xE0, 0x0F, 0x00, 
  0x00, 0x00, 0x00, 0x00, 0x00, 0x00, 0x00, 0x00, 0x00, 0x00, 0x00, 0x00, 
  0x00, 0x00, 0x00, 0x00, 0x00, 0x00, 0x00, 0x00, };
